<?xml version="1.0" encoding="UTF-8"?>
<svg id="Capa_1" xmlns="http://www.w3.org/2000/svg" version="1.1" viewBox="0 0 300 300">
  <!-- Generator: Adobe Illustrator 29.8.1, SVG Export Plug-In . SVG Version: 2.1.1 Build 2)  -->
  <defs>
    <style>
      .st0 {
        fill: #fff;
      }

      .st1 {
        fill: #626061;
      }
    </style>
  </defs>
  <circle class="st1" cx="150" cy="149.5" r="150"/>
  <g>
    <path class="st0" d="M183.48,108.85c-4.09,0-7.41,3.32-7.41,7.41s3.32,7.41,7.41,7.41,7.41-3.32,7.41-7.41-3.32-7.41-7.41-7.41Z"/>
    <path class="st0" d="M150.52,118.36c-17.17,0-31.14,13.97-31.14,31.14s13.97,31.14,31.14,31.14,31.14-13.97,31.14-31.14-13.97-31.14-31.14-31.14ZM150.52,169.45c-11,0-19.95-8.95-19.95-19.95s8.95-19.95,19.95-19.95,19.95,8.95,19.95,19.95-8.95,19.95-19.95,19.95Z"/>
    <path class="st0" d="M175.24,212.73h-50.49c-20.94,0-37.98-17.04-37.98-37.98v-50.49c0-20.95,17.04-37.98,37.98-37.98h50.49c20.94,0,37.99,17.04,37.99,37.98v50.49c0,20.94-17.04,37.98-37.99,37.98ZM124.76,98.17c-14.39,0-26.09,11.7-26.09,26.09v50.49c0,14.39,11.7,26.09,26.09,26.09h50.49c14.39,0,26.09-11.7,26.09-26.09v-50.49c0-14.39-11.7-26.09-26.09-26.09h-50.49Z"/>
  </g>
</svg>