<?xml version="1.0" encoding="UTF-8"?>
<svg id="Capa_1" xmlns="http://www.w3.org/2000/svg" version="1.1" viewBox="0 0 748 106">
  <!-- Generator: Adobe Illustrator 29.8.1, SVG Export Plug-In . SVG Version: 2.1.1 Build 2)  -->
  <defs>
    <style>
      .st0 {
        fill: #2b2b2b;
      }

      .st1 {
        fill: #ff3a00;
      }

      .st2 {
        fill: #1a1a1a;
      }

      .st3 {
        fill: #02f;
      }
    </style>
  </defs>
  <rect class="st1" y="22" width="110" height="61"/>
  <rect class="st3" x="544" y="22" width="203.33" height="61"/>
  <path class="st2" d="M110.87.04l-18.87,105.03h451.25L562.11.04H110.87Z"/>
  <g>
    <path class="st0" d="M490.46,105.03l12.73-70.02h-23.08l-12.73,70.02h23.07Z"/>
    <path class="st0" d="M473.85,70.02L486.58,0h-32.14l-12.73,70.02h32.14Z"/>
    <path class="st0" d="M435.54,105.03l12.73-70.02h-41.81l-12.73,70.02h41.81Z"/>
    <path class="st0" d="M400.1,70.02L412.83,0h-50.88l-12.73,70.02h50.88Z"/>
    <path class="st0" d="M342.88,105.11l12.73-70.01h-50.87l-12.73,70.01h50.87Z"/>
    <path class="st0" d="M513.79,70.02L526.52,0h-17.03l-12.73,70.02h17.04Z"/>
    <path class="st0" d="M517.94,105.03l9.55-52.51h-10.51l-9.55,52.51h10.51Z"/>
    <path class="st0" d="M533.7,105.03l9.55-52.51h-5.25l-9.55,52.51h5.25Z"/>
    <path class="st0" d="M548.5,52.52L558.05,0h-5.25l-9.55,52.52h5.25Z"/>
    <path class="st0" d="M541.63,105.03l9.55-52.51h-2.65l-9.55,52.51h2.65Z"/>
    <path class="st0" d="M552.57,52.51l9.55-52.51h-1.38l-9.55,52.51h1.38Z"/>
    <path class="st0" d="M537.99,52.52L547.54,0h-10.51l-9.55,52.52h10.51Z"/>
    <path class="st0" d="M144.37,105.03l12.86-70.02h23.08l-12.86,70.02h-23.08Z"/>
    <path class="st0" d="M173.78,70.02L186.64,0h32.14l-12.86,70.02h-32.14Z"/>
    <path class="st0" d="M199.3,105.03l12.86-70.02h41.81l-12.86,70.02h-41.81Z"/>
    <path class="st0" d="M247.53,70.02L260.39,0h50.88l-12.86,70.02h-50.88Z"/>
    <path class="st0" d="M133.84,70.02L146.7,0h17.04l-12.86,70.02h-17.04Z"/>
    <path class="st0" d="M116.9,105.03l9.65-52.51h10.51l-9.64,52.51h-10.51Z"/>
    <path class="st0" d="M101.14,105.03l9.64-52.51h5.25l-9.64,52.51h-5.25Z"/>
    <path class="st0" d="M105.53,52.52L115.17,0h5.25l-9.64,52.52h-5.25Z"/>
    <path class="st0" d="M93.21,105.03l9.64-52.51h2.65l-9.64,52.51h-2.65Z"/>
    <path class="st0" d="M101.46,52.51L111.11,0h1.38l-9.64,52.51h-1.39Z"/>
    <path class="st0" d="M116.04,52.52L125.68,0h10.51l-9.64,52.52h-10.51Z"/>
  </g>
</svg>