<svg width="43" height="52" viewBox="0 0 43 52" fill="none" xmlns="http://www.w3.org/2000/svg">
<path d="M21.6595 4.06744C11.9595 4.0677 4.07166 11.9667 4.07166 21.6612C4.07169 25.5405 5.30585 29.2169 7.64197 32.2921L20.8949 47.9376C21.3236 48.3363 21.9866 48.3365 22.4115 47.9454L35.6801 32.2559L35.7738 32.1309C38.0491 29.077 39.2435 25.4586 39.2435 21.6612C39.2435 11.9615 31.3598 4.06744 21.6595 4.06744ZM21.767 10.5323C21.7966 10.5336 21.8146 10.5342 21.8314 10.5342H21.8392C27.2185 10.6216 31.6261 14.6128 32.3959 19.794L32.4808 20.3682H32.4633C32.4995 20.7059 32.5238 21.0516 32.5238 21.4063C32.5238 22.0814 32.4564 22.7285 32.3441 23.3516V23.3526C31.4358 28.3697 27.095 32.1911 21.8344 32.2784H21.8265C21.8097 32.2784 21.7917 32.279 21.7621 32.2803C21.7354 32.2815 21.6964 32.2833 21.6547 32.2833C15.7067 32.283 10.8886 27.5057 10.7963 21.5801V21.5733C10.7963 21.5569 10.7956 21.5399 10.7943 21.5118C10.7931 21.486 10.7914 21.4484 10.7914 21.4063C10.7914 15.398 15.6615 10.5294 21.6605 10.5294C21.702 10.5294 21.7404 10.5311 21.767 10.5323ZM21.6547 13.4346C17.2661 13.4349 13.6957 17.0081 13.6957 21.4014C13.6957 25.7947 17.2662 29.367 21.6547 29.3672C26.0432 29.3672 29.6146 25.7902 29.6146 21.4014C29.6146 17.0079 26.0434 13.4346 21.6547 13.4346ZM42.1625 21.671C42.1624 26.1099 40.7566 30.3445 38.1029 33.9092L38.0511 33.9786L38.0326 33.9903L24.5922 49.8868L24.5785 49.9024L24.5052 49.9756C23.7175 50.7641 22.6876 51.1563 21.6595 51.1563C20.6317 51.1562 19.6025 50.764 18.8148 49.9756L18.7894 49.9512L18.7679 49.9219C18.7806 49.9388 18.7865 49.9442 18.7728 49.9297C18.7695 49.9262 18.7665 49.9225 18.764 49.92L18.7465 49.9024L18.7328 49.8868L5.38318 34.1251L5.37439 34.1153L5.36658 34.1046C2.60866 30.4711 1.16251 26.1856 1.16248 21.6661C1.16248 10.3567 10.3541 1.15657 21.6595 1.15631C32.9558 1.15631 42.1473 10.3565 42.1625 21.67V21.671Z" fill="#0022FF" stroke="#0022FF"/>
</svg>
