<?xml version="1.0" encoding="UTF-8"?>
<svg id="Capa_1" xmlns="http://www.w3.org/2000/svg" version="1.1" viewBox="0 0 450 450">
  <!-- Generator: Adobe Illustrator 29.8.1, SVG Export Plug-In . SVG Version: 2.1.1 Build 2)  -->
  <defs>
    <style>
      .st0 {
        fill: #f4f4f4;
      }
    </style>
  </defs>
  <path class="st0" d="M126.02,252.58c-4,0-7.25,3.24-7.25,7.25v105.25c0,4,3.24,7.25,7.25,7.25s7.25-3.24,7.25-7.25v-105.25c0-4-3.24-7.25-7.25-7.25Z"/>
  <path class="st0" d="M407.2,77.65h-196.27c-4,0-7.25,3.24-7.25,7.25v23.22c0,4,3.24,7.25,7.25,7.25h2.14v40.76h-53.39c7.92-8.35,12.83-19.58,12.83-31.97,0-25.63-20.87-46.5-46.5-46.5s-46.5,20.87-46.5,46.5c0,12.39,4.89,23.62,12.83,31.97h-12.01c-24.67,0-44.76,20.07-44.76,44.76v79.08c0,13.61,11.07,24.67,24.67,24.67,3.64,0,7.07-.83,10.16-2.25v62.7c0,4,3.24,7.25,7.25,7.25s7.25-3.24,7.25-7.25l.02-84.93c0-.07.02-.14.02-.22v-46.88s-.02-.07-.02-.11v-27.32c0-4-3.24-7.25-7.25-7.25s-7.25,3.24-7.25,7.25v74.51c-.11,5.51-4.62,9.98-10.16,9.98s-10.18-4.57-10.18-10.18v-79.08c0-16.68,13.59-30.27,30.27-30.27h45c.24,0,.47.04.71.04s.47-.04.71-.04h115.2c4.87,0,8.84,3.97,8.84,8.84s-3.97,8.84-8.84,8.84h-21.45c-.05,0-.09-.04-.14-.04s-.09.04-.14.04h-45.82c-4,0-7.25,3.24-7.25,7.25,0,.04.02.07.02.11v169.46c0,4,3.24,7.25,7.25,7.25s7.25-3.24,7.25-7.25l-.04-162.34h31.45v28.22c0,4,3.24,7.25,7.25,7.25h81.5v15.51c-10.8,3.17-18.77,13.06-18.77,24.87,0,14.35,11.68,26.01,26.01,26.01s26.01-11.68,26.01-26.01c0-11.81-7.97-21.7-18.77-24.87v-15.51h81.5c4,0,7.25-3.24,7.25-7.25v-115.64h2.14c4,0,7.25-3.24,7.25-7.25v-23.22c0-3.99-3.22-7.23-7.25-7.23h0ZM320.58,278.61c0,6.36-5.18,11.52-11.52,11.52s-11.52-5.18-11.52-11.52,5.18-11.52,11.52-11.52c6.36-.02,11.52,5.16,11.52,11.52ZM218.18,92.15h181.79v8.73h-2.14l-177.52-.02h-2.14v-8.71ZM94.01,124.16c0-17.64,14.37-32.01,32.01-32.01s32.01,14.37,32.01,32.01-14.17,31.78-31.65,31.97h-.71c-17.5-.2-31.67-14.46-31.67-31.97h0ZM390.57,223.76h-163v-20.98h14.35c12.45,0,22.57-9.84,23.21-22.12h88.33c4,0,7.25-3.24,7.25-7.25s-3.24-7.25-7.25-7.25l-88.75-.02c-1.14,0-2.19.33-3.17.8-4.15-6.49-11.38-10.83-19.62-10.83h-14.35v-40.76h163v108.41Z"/>
  <path class="st0" d="M264.7,143.09h88.75c4,0,7.25-3.24,7.25-7.25s-3.24-7.25-7.25-7.25h-88.75c-4,0-7.25,3.24-7.25,7.25s3.24,7.25,7.25,7.25Z"/>
</svg>