<?xml version="1.0" encoding="UTF-8"?>
<svg id="Capa_2" xmlns="http://www.w3.org/2000/svg" version="1.1" viewBox="0 0 450 450">
  <!-- Generator: Adobe Illustrator 29.8.1, SVG Export Plug-In . SVG Version: 2.1.1 Build 2)  -->
  <defs>
    <style>
      .st0 {
        fill: #f4f4f4;
      }
    </style>
  </defs>
  <path class="st0" d="M221.13,33.55c-62.01,2.22-113.7,22.6-145.19,65.75-31.5,43.12-42.1,107.42-26.78,195.31.48,2.85,2.5,5.39,5.16,6.53l276.41,114.2c6.99,1.85,14.58,1.3,20.4-.55,6.42-2.08,12.7-5.6,17.82-10.35,10.64-13.51,21.17-27.51,31.69-41.24.94-1.22,1.57-2.69,1.76-4.22,8.69-76.36,9.02-156.42-15.63-218.87-33.18-76.13-76.68-106.62-165.59-106.58l-.04.02ZM221.4,50.99c32.09-.06,65.54,7.26,89.73,21.24-29.74-7.37-58.74-13.33-88.09-12.53-33.91.92-67.99,12.15-102.51,39.07,1.43-6.88,2.1-13.45,1.49-19.73,26.15-17.52,59.64-26.57,99.38-28.04v-.02ZM223.58,77.12c37-1.01,75.65,10.09,118.29,20.82,16.72,21.15,26.97,41.28,34.12,64.38-36.83-1.85-71.2-13.64-109.86-29.53-23.27-9.74-48.92-9.36-70.84-2.18-23.02,7.95-43.94,26.38-44.32,49.54,0,38.05,19.01,67.97,47.45,82.62,48.77,15.84,98.82,31.75,140.72,45.18,4.22,12.44,8.27,21.7,16.72,28.85,7.07,6,16.2,10.07,29.63,14.84-3.44,10.7-13.72,20.44-20.8,29.67l-187.75-88.74c-.71-7.95-4.93-15-10.32-22.05-5.92-7.72-13.72-15.55-22.43-23.15-17.44-15.19-38.3-29.48-54.12-38.53-6.63-3.21-13.79,3.69-12.91,9.25,2.58,11.35,7.26,21.01,9.25,31.71l-26.11-12.38c-2.77-56.64,8.41-98.69,29.78-127.94,4.15-5.69,8.67-10.98,13.6-15.78-1.41,7.85-4.26,17.23-8.56,28.04-1.34,10.2,7.01,13.47,14.14,9.4,35.44-30.18,74.45-52.44,114.35-54.04l-.04.02ZM260.69,149.26l18.36,121.14c-24.36-7.83-48.75-15.59-73.15-23.42-22.58-11.84-37.52-34.65-37.52-66.84,2.01-18.11,17.8-28.04,32.48-33.07,19.91-6.02,41.36-6.21,59.83,2.18ZM279.32,156.61c33.76,12.99,66.19,22.43,101.57,23.27,8.88,37.96,10.58,81.48,8.29,125.91-30.55-9.8-61.11-19.6-91.64-29.4l-18.21-119.78ZM101.22,236.64c10.7,7.24,21.68,15.36,31.54,23.96,8.14,7.09,15.3,14.27,20.12,20.54l-49.08-23.15c1.18-7.55-.55-14.84-2.58-21.36ZM61.79,257.31l290.95,137.47c-5.02,3.34-10.05,4.47-16.05,4.22l-270.96-111.87c-1.7-10.32-2.98-20.25-3.95-29.8v-.02ZM360.49,314.89c9.19,2.96,18.4,5.9,27.59,8.86-.25,3.34-.52,6.72-.82,10.07-10.22-3.84-16.49-7.01-20.25-10.2-2.73-2.31-4.68-4.97-6.53-8.71v-.02Z"/>
</svg>