<?xml version="1.0" encoding="UTF-8"?>
<svg id="Capa_3" xmlns="http://www.w3.org/2000/svg" version="1.1" viewBox="0 0 450 450">
  <!-- Generator: Adobe Illustrator 29.8.1, SVG Export Plug-In . SVG Version: 2.1.1 Build 2)  -->
  <defs>
    <style>
      .st0 {
        fill: #f4f4f4;
      }
    </style>
  </defs>
  <path class="st0" d="M351.85,28.33h-84.54c-18.74,0-36.36,7.3-49.62,20.55L46.15,220.44c-23.75,23.75-23.75,62.38,0,86.11l97.29,97.29c11.5,11.5,26.79,17.83,43.06,17.83s31.56-6.33,43.06-17.83l171.56-171.56c13.26-13.26,20.55-30.88,20.55-49.62v-84.54c0-38.48-31.31-69.79-69.79-69.79h-.02ZM406.94,182.66c0,14.81-5.77,28.72-16.24,39.2l-171.56,171.56c-18,18-47.29,18-65.29,0l-97.29-97.29c-18-18-18-47.29,0-65.29L228.11,59.28c10.48-10.48,24.39-16.24,39.2-16.24h84.54c30.37,0,55.08,24.71,55.08,55.08v84.54ZM319.67,85.64c-5.98,5.98-9.27,13.9-9.27,22.35s3.29,16.37,9.27,22.35c6.16,6.16,14.26,9.25,22.35,9.25s16.19-3.08,22.35-9.25c12.33-12.33,12.33-32.37,0-44.68-12.31-12.33-32.37-12.33-44.68,0l-.02-.02ZM353.95,119.92c-6.58,6.58-17.28,6.58-23.86,0-3.2-3.18-4.94-7.43-4.94-11.93s1.76-8.74,4.94-11.93c3.29-3.29,7.62-4.94,11.93-4.94s8.64,1.65,11.93,4.94c6.58,6.58,6.58,17.28,0,23.86h0ZM140.66,209.23c-14.92,14.92-13.63,36.06.28,49.97,14.2,14.2,35.21,15.05,49.97.28,14.92-14.92,14.05-35.93-.15-50.13-13.77-13.77-34.92-15.34-50.13-.13h.02ZM177.16,245.72c-5.11,5.11-13.63,4.82-20.59-2.14-7.09-7.09-7.37-15.34-2.14-20.59,5.39-5.39,13.77-4.97,20.72,1.99,7.11,7.11,7.39,15.34,1.99,20.72l.02.02ZM251.71,197.58c-14.92,14.92-13.92,36.08.28,50.28,13.92,13.92,35.08,15.18,50.13.13,14.62-14.62,13.77-35.93-.28-49.97-13.92-13.92-35.08-15.49-50.13-.43h0ZM288.36,234.23c-5.39,5.39-13.77,4.97-20.72-1.99-7.24-7.24-7.53-15.2-1.99-20.72,5.26-5.26,13.77-4.97,20.72,1.99,7.09,7.09,7.37,15.34,1.99,20.72ZM214.94,136.96l29.4,165.72-16.9,16.9-29.25-165.85,16.75-16.75v-.02Z"/>
</svg>