<?xml version="1.0" encoding="UTF-8"?>
<svg id="Capa_1" xmlns="http://www.w3.org/2000/svg" version="1.1" viewBox="0 0 1554 1920">
  <!-- Generator: Adobe Illustrator 29.8.1, SVG Export Plug-In . SVG Version: 2.1.1 Build 2)  -->
  <defs>
    <style>
      .st0 {
        fill: #1a1a1a;
      }
    </style>
  </defs>
  <path class="st0" d="M1432.67,123.65L798.81,13.65l-22.01-3.59-22.01,3.59L120.86,123.65l-106.82,18.42v975.51c0,141.43,63.74,272.5,174.62,360.48l1.82,1.35,1.77,1.35,508.68,373.08,76.27,56.09,76.33-56.09,508.21-373.08,1.77-1.35,1.82-1.35c110.88-87.52,174.62-219.06,174.62-360.48V142.07l-106.82-18.42h-.47ZM1231.09,1170.14h-298.1c17.95-26.49,26.96-59.26,26.96-98.81v-405.39l-167.03,504.2h-173.74l-163.85-504.2v405.39c0,40.43,9,73.21,26.95,98.81h-160.26c4.47-6.3,10.3-18.42,17.07-35.02,6.71-16.66,10.3-38.2,10.3-63.33v-466.42c0-39.08-9-71.86-27.37-98.76h330.41l123.48,378.9,125.24-378.9h329.94c-17.95,25.13-26.9,58.33-26.9,98.76v466.42c0,40.43,8.95,73.15,26.9,98.76v-.41Z"/>
</svg>